<?xml version="1.0" encoding="utf-8"?>
<!-- Generator: Adobe Illustrator 13.0.0, SVG Export Plug-In . SVG Version: 6.00 Build 14948)  -->
<svg version="1.2" baseProfile="tiny" id="Layer_1" xmlns="http://www.w3.org/2000/svg" xmlns:xlink="http://www.w3.org/1999/xlink"
	 x="0px" y="0px" width="45px" height="60px" viewBox="0 0 45 60" xml:space="preserve">
<path fill="#FFC107" stroke="#000000" stroke-width="2" d="M44,32.533C44,38.867,38.867,44,32.533,44H12.467
	C6.134,44,1,38.867,1,32.533V12.467C1,6.134,6.134,1,12.467,1h20.066C38.867,1,44,6.134,44,12.467V32.533z"/>
<path fill="#FFC107" stroke="#000000" stroke-width="2" d="M32.533,44L22.5,58.72L12.467,44H32.533z"/>
<g>
	<path d="M21.492,12.189c2.157,0,3.935-1.778,3.935-3.935c0-2.156-1.778-3.934-3.935-3.934c-2.156,0-3.935,1.748-3.935,3.934
		C17.557,10.44,19.306,12.189,21.492,12.189z"/>
	<path d="M33.003,37.775l-2.972-2.973V24.167c0.175-0.087,0.32-0.234,0.407-0.379l0.292-0.466c0.32-0.525,0.146-1.195-0.35-1.516
		l-0.32-0.204v-9.821c0.582-0.233,0.99-0.758,0.99-1.428V9.508c0-0.845-0.699-1.516-1.515-1.516c-0.846,0-1.516,0.7-1.516,1.516
		v0.845c0,0.641,0.407,1.195,0.99,1.428v9.122l-2.564-1.632c-0.262-0.175-0.554-0.583-0.641-0.875l-1.079-4.371
		c-0.028-0.117-0.087-0.204-0.145-0.321c-0.176-0.35-0.555-0.612-0.962-0.612h-4.285l-4.459-8.451C14.673,4.262,14.265,4,13.798,4
		c-0.174,0-0.378,0.029-0.524,0.117l-0.816,0.408c-0.292,0.146-0.496,0.379-0.583,0.699c-0.087,0.292-0.058,0.612,0.087,0.904
		l5.158,9.792v8.801c0,0.029-0.029,0.058-0.029,0.058l-3.555,11.105c-0.146,0.465-0.116,0.961,0.117,1.369
		c0.233,0.406,0.612,0.727,1.078,0.844l0.233,0.059c0.146,0.029,0.32,0.059,0.466,0.059c0.816,0,1.545-0.525,1.807-1.313
		l3.381-10.548h0.292l0.611,3.06c0.088,0.495,0.175,1.311,0.204,1.807l0.146,6.236c0.029,0.67,0.525,1.166,1.196,1.166
		c0.058,0,0.116,0,0.174,0l1.166-0.176c0.7-0.086,1.225-0.758,1.195-1.457l-0.321-6.266c-0.028-0.523-0.116-1.369-0.174-1.894
		l-0.438-7.169l4.284,2.477v10.637l-2.973,2.973c-0.204,0.205-0.204,0.555,0,0.758c0.116,0.117,0.233,0.146,0.378,0.146
		c0.146,0,0.292-0.059,0.38-0.146l2.186-2.186v2.127c0,0.291,0.233,0.555,0.553,0.555c0.292,0,0.555-0.234,0.555-0.555v-2.098
		l2.186,2.186c0.116,0.117,0.233,0.146,0.379,0.146s0.291-0.059,0.379-0.146C33.236,38.33,33.236,37.979,33.003,37.775z"/>
</g>
</svg>
