<?xml version="1.0" encoding="utf-8"?>
<!-- Generator: Adobe Illustrator 13.0.0, SVG Export Plug-In . SVG Version: 6.00 Build 14948)  -->
<svg version="1.2" baseProfile="tiny" id="Layer_1" xmlns="http://www.w3.org/2000/svg" xmlns:xlink="http://www.w3.org/1999/xlink"
	 x="0px" y="0px" width="45px" height="60px" viewBox="0 0 45 60" xml:space="preserve">
<path fill="#FFC107" stroke="#000000" stroke-width="2" d="M44,32.533C44,38.867,38.867,44,32.533,44H12.467
	C6.134,44,1,38.867,1,32.533V12.467C1,6.134,6.134,1,12.467,1h20.066C38.867,1,44,6.134,44,12.467V32.533z"/>
<path fill="#FFC107" stroke="#000000" stroke-width="2" d="M32.533,44L22.5,58.72L12.467,44H32.533z"/>
<path d="M39.3,8H5.7l-3.2,5.2h0c0.004,1.764,1.434,3.191,3.2,3.191c0.957,0,1.813-0.422,2.4-1.088
	c0.586,0.666,1.443,1.088,2.4,1.088s1.813-0.422,2.4-1.088c0.587,0.666,1.443,1.088,2.4,1.088c0.958,0,1.814-0.422,2.4-1.088
	c0.586,0.666,1.443,1.088,2.4,1.088c0.958,0,1.813-0.422,2.4-1.088c0.587,0.666,1.443,1.088,2.4,1.088s1.813-0.422,2.399-1.088
	c0.586,0.666,1.442,1.088,2.4,1.088s1.813-0.422,2.399-1.088c0.586,0.666,1.442,1.088,2.4,1.088s1.814-0.422,2.4-1.088
	c0.586,0.666,1.441,1.088,2.399,1.088c1.765,0,3.194-1.428,3.2-3.191l0,0L39.3,8z"/>
<path d="M36.9,17.346c-0.723,0.482-1.55,0.743-2.4,0.743s-1.678-0.261-2.4-0.743c-0.723,0.482-1.55,0.743-2.399,0.743
	c-0.851,0-1.678-0.261-2.4-0.743c-0.723,0.482-1.549,0.743-2.399,0.743c-0.852,0-1.679-0.261-2.4-0.743
	c-0.723,0.482-1.549,0.743-2.4,0.743c-0.851,0-1.677-0.261-2.4-0.743c-0.723,0.482-1.549,0.743-2.4,0.743
	c-0.851,0-1.677-0.261-2.4-0.743c-0.723,0.482-1.549,0.743-2.4,0.743s-1.677-0.261-2.4-0.743c-0.723,0.482-1.549,0.743-2.4,0.743V36
	h3.6V21.6h7.2V36h22.8V18.089C38.45,18.089,37.623,17.828,36.9,17.346z M35.7,30.801H20.1V21.6h15.6V30.801z"/>
</svg>
