<?xml version="1.0" encoding="utf-8"?>
<svg x="0px" y="0px" viewBox="0 0 73.439 125" xmlns="http://www.w3.org/2000/svg">
  <defs/>
  <path d="M 61.55739974975586 32.431060791015625 L 51.88990020751953 32.431060791015625 L 51.88990020751953 21.54114532470703 C 52.672889709472656 19.75545310974121 52.887611389160156 18.053653717041016 52.887611389160156 16.73535919189453 C 52.887611389160156 11.226483345031738 48.03289031982422 6.6973395347595215 41.154781341552734 5.735583305358887 C 40.760292053222656 5.615738391876221 39.71963882446289 4.831751823425293 38.96162033081055 4.2574944496154785 C 36.58269500732422 2.460817813873291 33.32490539550781 0 29.022470474243164 0 C 24.413429260253906 0 20.989858627319336 2.5996382236480713 18.238414764404297 4.686939239501953 C 16.61551284790039 5.918346881866455 14.938682556152344 7.192698955535889 13.84609603881836 7.192698955535889 C 13.207921028137207 7.192698955535889 12.376995086669922 7.037899017333984 11.499130249023438 6.874110698699951 C 10.41653060913086 6.673370838165283 9.296977996826172 6.4646406173706055 8.150460243225098 6.4646406173706055 C 6.922049045562744 6.4646406173706055 5.876400947570801 6.70632791519165 4.954593181610107 7.204683780670166 C 0 9.887214660644531 0 14.861781120300293 0 16.73436164855957 C 0 18.695823669433594 0.33556607365608215 20.44256591796875 0.9987085461616516 21.991561889648438 L 0.9987085461616516 29.02047348022461 L 0.9987085461616516 39.99827575683594 C 0.9987085461616516 56.904415130615234 0.9987085461616516 87.38700103759766 0.9987085461616516 87.39698791503906 C 0.9987085461616516 94.28507232666016 12.390976905822754 99.87085723876953 26.443805694580078 99.87085723876953 C 40.49763107299805 99.87085723876953 51.88990020751953 94.2840805053711 51.88990020751953 87.39698791503906 C 51.88990020751953 87.39398956298828 51.88990020751953 84.63755798339844 51.88990020751953 80.3291244506836 L 61.55739974975586 80.3291244506836 C 64.05316925048828 80.3291244506836 68.63624572753906 79.14065551757812 71.29081726074219 71.1779556274414 C 72.61409759521484 67.2031021118164 73.34516143798828 61.94789505004883 73.34516143798828 56.379093170166016 C 73.34416198730469 44.802066802978516 70.24716186523438 32.431060791015625 61.55739974975586 32.431060791015625 Z  M 4.9895477294921875 35.62293243408203 L 4.9895477294921875 26.816322326660156 C 5.857425212860107 27.43352508544922 6.835161209106445 27.99080467224121 7.934739589691162 28.482168197631836 C 8.748686790466309 28.845699310302734 11.510115623474121 30.99891471862793 10.177838325500488 34.855926513671875 L 10.139887809753418 34.95280456542969 C 9.748394012451172 35.95051193237305 9.447782516479492 36.99116897583008 9.195109367370605 38.04979705810547 C 7.587188720703125 37.33372116088867 6.173017978668213 36.51777648925781 4.9895477294921875 35.62293243408203 Z  M 20.460540771484375 49.986358642578125 C 19.98415756225586 50.10920333862305 19.499784469604492 50.17112350463867 19.01840591430664 50.17112350463867 C 18.1605167388916 50.17112350463867 16.939096450805664 49.971378326416016 16.00130844116211 49.0156135559082 C 14.950667381286621 47.9430046081543 14.420352935791016 46.0824089050293 14.468291282653809 43.633575439453125 C 14.493258476257324 42.36521530151367 14.640069007873535 41.14279556274414 14.885750770568848 39.96531677246094 C 15.090485572814941 38.988582611083984 15.359138488769531 38.041805267333984 15.713680267333984 37.13997268676758 C 15.76461410522461 37.00814437866211 15.801566123962402 36.91127014160156 15.822540283203125 36.84735107421875 C 18.17549705505371 30.039154052734375 14.054825782775879 24.660110473632812 10.377580642700195 23.017236709594727 C 6.7043304443359375 21.374361038208008 5.9862589836120605 19.46882438659668 5.9862589836120605 16.73436164855957 C 5.9862589836120605 14.281532287597656 6.444666385650635 13.205923080444336 7.768953800201416 12.485854148864746 C 7.769952774047852 12.485854148864746 7.8738179206848145 12.451898574829102 8.150460243225098 12.451898574829102 C 8.743693351745605 12.451898574829102 9.548652648925781 12.601704597473145 10.402548789978027 12.760499954223633 C 11.458182334899902 12.956245422363281 12.654635429382324 13.179956436157227 13.845096588134766 13.179956436157227 C 16.954076766967773 13.179956436157227 19.44585418701172 11.28740406036377 21.85773468017578 9.45577335357666 C 24.20769691467285 7.671080589294434 26.42682647705078 5.9862589836120605 29.02147102355957 5.9862589836120605 C 31.317502975463867 5.9862589836120605 33.460731506347656 7.605165481567383 35.3522834777832 9.033318519592285 C 36.964202880859375 10.250744819641113 38.48623275756836 11.40025806427002 40.247955322265625 11.647937774658203 C 44.10197067260742 12.189237594604492 46.898353576660156 14.329469680786133 46.898353576660156 16.733360290527344 C 46.898353576660156 20.249813079833984 44.11994552612305 22.832473754882812 38.63703918457031 24.412431716918945 C 36.540748596191406 25.017648696899414 35.88559341430664 27.108943939208984 35.25141525268555 29.132328033447266 C 35.05366897583008 29.764511108398438 34.7310905456543 30.794178009033203 34.42148971557617 31.45832061767578 C 33.5745849609375 31.041860580444336 32.3631477355957 30.36773109436035 31.542211532592773 29.91132164001465 C 28.501144409179688 28.218509674072266 27.33265495300293 27.6182861328125 26.172155380249023 27.532398223876953 L 26.05331039428711 27.523408889770508 L 25.885526657104492 27.526405334472656 L 25.82460594177246 27.527402877807617 C 25.08356285095215 27.536392211914062 24.413429260253906 27.82102394104004 23.89510154724121 28.275436401367188 L 23.641429901123047 28.564062118530273 C 23.250934600830078 29.008487701416016 23.0272216796875 29.451915740966797 22.919361114501953 29.982229232788086 C 22.7405948638916 30.870080947875977 22.885406494140625 31.99962043762207 23.11410903930664 33.7833137512207 C 23.333826065063477 35.49010467529297 23.701351165771484 38.368385314941406 23.732311248779297 41.23667526245117 C 23.77625274658203 45.27745056152344 23.142074584960938 49.29825210571289 20.460540771484375 49.986358642578125 Z  M 46.58875274658203 36.511783599853516 C 42.56395721435547 39.02953338623047 36.57370376586914 40.77727127075195 29.715574264526367 41.202720642089844 C 29.70558738708496 39.18333053588867 29.544795989990234 37.23085403442383 29.361032485961914 35.54803466796875 C 32.246299743652344 37.13997268676758 33.54961395263672 37.753177642822266 34.80099868774414 37.753177642822266 C 38.82678985595703 37.753177642822266 40.16706085205078 33.47771072387695 40.966026306152344 30.92401123046875 C 41.065895080566406 30.606422424316406 41.194732666015625 30.19495391845703 41.31258010864258 29.857391357421875 C 44.13492965698242 28.940576553344727 46.265174865722656 27.77907943725586 47.8980598449707 26.50872039794922 L 47.8980598449707 35.6109504699707 C 47.48759078979492 35.919551849365234 47.052154541015625 36.22116470336914 46.58875274658203 36.511783599853516 Z  M 61.258785247802734 71.34873962402344 L 51.88990020751953 71.34873962402344 C 51.88990020751953 61.903953552246094 51.88990020751953 50.14016342163086 51.88990020751953 41.41144943237305 L 61.25978469848633 41.41144943237305 C 62.38433074951172 42.45809555053711 64.3627700805664 47.718292236328125 64.3627700805664 56.3760986328125 C 64.3627700805664 65.03889465332031 62.38433074951172 70.30109405517578 61.258785247802734 71.34873962402344 Z "/>
</svg>