<?xml version="1.0" encoding="utf-8"?>
<svg x="0px" y="0px" viewBox="0 0 100 125" xmlns="http://www.w3.org/2000/svg">
  <defs/>
  <g style="display: none;">
    <rect x="5" y="4.5" width="90" height="91" style="display: inline; fill: rgb(0, 0, 0);"/>
  </g>
  <g transform="matrix(1.2898671627044678, 0, 0, 1.2898671627044678, -15.188752961158755, 1.5210856199264526)">
    <g>
      <ellipse cx="18.5" cy="82.2" rx="6.2" ry="6.2"/>
      <ellipse cx="82.4" cy="82.2" rx="6.2" ry="6.2"/>
      <ellipse cx="60.7" cy="88.3" rx="6.2" ry="6.2"/>
      <ellipse cx="38" cy="88.8" rx="6.2" ry="6.2"/>
      <path d="M58,21.2c1.7-1.6,3.4-3.2,4.5-5.3c1-2.1,1-4.6,0.1-6.7C62.2,8,60,5,60,5c0.6,1.8-0.2,3.8-0.2,3.8    c-0.3,0.6-0.7,1.2-1.1,1.8C56.9,13.7,58.9,17.7,58,21.2z"/>
      <path d="M19.9,48.1c0.1,0.8,0.1,1.6,0.2,2.4c0.1,1.3,0.1,2.7,0.4,4.1c1.1,5.6,5.8,10.6,12.2,13c3.4,1.3,7,1.9,10.5,2.2    c-3.1-1.7-5.2-5.5-4-8.8c0.3,1.3,1.5,2.3,2.9,2.4c-2-5.4-4-11.4-1.6-16.7c0.9,2.2,2.4,4.1,4.2,5.6c-0.1-3.2,0-6.5,0.5-9.7    c1.9,2.1,3.7,4.2,5.1,6.7c1.3,2.5,2.1,5.4,1.6,8.1c1-2.2,2.8-3.9,5-4.8c-0.1,1.6-0.4,3.3-0.9,4.8c3-1.5,6.1-2.7,9.3-3.6    c-5.1,2.3-5,10.8-10.2,12.9c0.6,0,1.3,0,1.9,0.1c-0.7,1.5-2,2.6-3.6,3.3c5.5-0.1,12.1-0.8,16-5.6c0.5-0.6,0.9-1.2,1.3-1.9    c0.6-0.8,1.1-1.6,1.7-2.3c0.3-0.2,0.6-0.5,0.9-0.7l-0.8-1c0.3-0.2,0.7-0.5,1-0.8c3.9-3.3,5.6-9.1,4.9-17.1    c-0.1-0.9-0.2-1.9-0.3-2.9c-0.5-4.8-1-9.8,0.8-14.1l0.7-1.8l-1.9,0.5c-3.1,0.7-4.4,4-4.6,6.7c-0.1,1.1-0.1,2.1,0,3.2    c0,1.5,0.1,2.8-0.2,4.2c-0.5,2.2-2,4.1-3.9,5.2c1.2-2.5,1.1-5.7,0.9-7.3c-0.1-0.6-0.1-1.2-0.2-1.7c-0.4-2.8-0.7-5.7,0.4-8l1-2.1    L69,23.4c-4.1,1.4-8.6,3.2-10.4,7.2c-0.2,0.5-0.4,1.1-0.6,1.6c0,0.1-0.1,0.2-0.1,0.3c0-3.2-1-6.3-2.7-8.7c-1.7-2.3-4-3.9-6.2-5.5    c-2.9-2.1-5.6-4-6.8-7l-0.5-1.3l-1.1,0.9c-2.6,2.3-4.2,5.9-4.4,10.1c-0.1,1.2-0.1,2.5,0,3.7c-1.7-3.1-3.8-6.1-6.1-8.8l-5.4-6.2    l3.8,7.3c2.1,4.1,1.1,9.2-0.1,14c-1,4.2-2.3,9.4-0.9,14c-1.2-1.2-2.6-2.3-4-3.4l-11-8.4l3.7,5.2C18.3,41.2,19.6,44.6,19.9,48.1z"/>
      <path d="M82.4,73.9l-12.5-8.2c-0.2,0.3-0.4,0.6-0.6,0.8c-4.1,4.9-11.1,5.6-16.8,5.6c-0.7,0-1.4,0-2.2,0    c-5.3-0.1-11.9-0.3-17.7-2.5c-1.5-0.6-2.9-1.3-4.3-2.2l-10,6.5c0,0,4.3-0.4,6.9,2.8c2.7,3.1,1.5,7,1.5,7l12.4-10.1l-4.8,7.7    c0,0,3.7-2.1,7.5-0.4c3.7,1.7,4.3,5.8,4.3,5.8l4.4-8.9l2.2,8.1c0,0,1-4.2,4.8-5.7c3.8-1.6,7.1,0.8,7.1,0.8L62.1,74l12,9.7    c0,0-1.2-3.9,1.5-7C78.1,73.5,82.4,73.9,82.4,73.9z"/>
    </g>
  </g>
</svg>