<?xml version="1.0" encoding="utf-8"?>
<!-- Generator: Adobe Illustrator 13.0.0, SVG Export Plug-In . SVG Version: 6.00 Build 14948)  -->
<svg version="1.2" baseProfile="tiny" id="Layer_1" xmlns="http://www.w3.org/2000/svg" xmlns:xlink="http://www.w3.org/1999/xlink"
	 x="0px" y="0px" width="45px" height="60px" viewBox="0 0 45 60" xml:space="preserve">
<path fill="#FFC107" stroke="#000000" d="M44,32.533C44,38.867,38.867,44,32.533,44H12.467C6.134,44,1,38.867,1,32.533V12.467
	C1,6.134,6.134,1,12.467,1h20.066C38.867,1,44,6.134,44,12.467V32.533z"/>
<path fill="#FFC107" stroke="#000000" d="M32.533,44L22.5,58.72L12.467,44H32.533z"/>
<g transform="matrix(1.2898671627044678, 0, 0, 1.2898671627044678, -15.188752961158755, 1.5210856199264526)">
	<g>
		<ellipse cx="18.831" cy="27.024" rx="2.016" ry="2.016"/>
		<ellipse cx="39.608" cy="27.024" rx="2.016" ry="2.016"/>
		<ellipse cx="32.552" cy="29.006" rx="2.016" ry="2.016"/>
		<ellipse cx="25.171" cy="29.17" rx="2.015" ry="2.015"/>
		<path d="M31.674,7.189c0.553-0.521,1.106-1.041,1.463-1.724c0.325-0.683,0.325-1.496,0.033-2.179
			c-0.13-0.39-0.846-1.365-0.846-1.365c0.195,0.585-0.065,1.236-0.065,1.236c-0.097,0.195-0.227,0.39-0.359,0.585
			C31.315,4.75,31.967,6.051,31.674,7.189z"/>
		<path d="M19.286,15.936c0.033,0.26,0.033,0.52,0.065,0.78c0.033,0.423,0.033,0.879,0.13,1.334c0.357,1.82,1.886,3.446,3.966,4.226
			c1.106,0.424,2.277,0.62,3.414,0.717c-1.008-0.552-1.691-1.788-1.301-2.861c0.098,0.422,0.488,0.747,0.943,0.78
			c-0.65-1.756-1.301-3.707-0.521-5.43c0.293,0.715,0.78,1.333,1.366,1.82c-0.033-1.04,0-2.113,0.162-3.153
			c0.618,0.683,1.203,1.366,1.658,2.179c0.422,0.812,0.683,1.756,0.521,2.634c0.325-0.716,0.909-1.268,1.623-1.561
			c-0.031,0.521-0.129,1.072-0.291,1.561c0.974-0.489,1.984-0.878,3.024-1.171c-1.658,0.748-1.626,3.512-3.317,4.195
			c0.196,0,0.423,0,0.617,0.032c-0.227,0.487-0.649,0.845-1.17,1.074c1.79-0.034,3.935-0.26,5.202-1.822
			c0.165-0.195,0.295-0.39,0.424-0.618c0.195-0.26,0.357-0.52,0.553-0.748c0.098-0.065,0.195-0.162,0.293-0.228l-0.261-0.325
			c0.097-0.065,0.228-0.162,0.326-0.26c1.268-1.073,1.82-2.959,1.592-5.56c-0.032-0.293-0.064-0.619-0.097-0.943
			c-0.163-1.562-0.325-3.186,0.26-4.585l0.227-0.585L38.079,7.58c-1.008,0.227-1.43,1.3-1.495,2.178
			c-0.033,0.358-0.033,0.683,0,1.041c0,0.488,0.032,0.91-0.065,1.365c-0.163,0.715-0.65,1.333-1.27,1.691
			c0.392-0.813,0.359-1.853,0.295-2.374c-0.033-0.195-0.033-0.39-0.067-0.552c-0.129-0.911-0.228-1.853,0.131-2.601l0.325-0.683
			l-0.684,0.26c-1.333,0.456-2.796,1.041-3.38,2.341c-0.065,0.163-0.129,0.358-0.195,0.521c0,0.032-0.033,0.065-0.033,0.097
			c0-1.04-0.326-2.048-0.878-2.829c-0.553-0.748-1.3-1.269-2.015-1.788c-0.943-0.683-1.821-1.301-2.211-2.276l-0.163-0.423
			L26.016,3.84c-0.845,0.749-1.365,1.919-1.431,3.285c-0.032,0.39-0.032,0.812,0,1.203c-0.553-1.008-1.236-1.984-1.983-2.861
			L20.847,3.45l1.236,2.374c0.683,1.333,0.357,2.991-0.033,4.552c-0.325,1.366-0.748,3.056-0.293,4.552
			c-0.39-0.39-0.845-0.749-1.3-1.106l-3.577-2.731l1.204,1.691C18.765,13.693,19.187,14.798,19.286,15.936z"/>
		<path d="M39.608,24.325l-4.063-2.667c-0.067,0.099-0.13,0.196-0.197,0.26c-1.333,1.593-3.608,1.82-5.462,1.82
			c-0.227,0-0.454,0-0.715,0c-1.723-0.032-3.869-0.097-5.755-0.812c-0.488-0.195-0.943-0.423-1.398-0.714l-3.252,2.113
			c0,0,1.399-0.13,2.243,0.911c0.878,1.008,0.488,2.276,0.488,2.276l4.032-3.284l-1.56,2.503c0,0,1.203-0.682,2.439-0.129
			c1.203,0.553,1.398,1.885,1.398,1.885l1.431-2.894l0.715,2.633c0,0,0.326-1.365,1.561-1.852c1.236-0.521,2.308,0.259,2.308,0.259
			l-0.812-2.276l3.901,3.154c0,0-0.39-1.268,0.487-2.276C38.21,24.194,39.608,24.325,39.608,24.325z"/>
	</g>
</g>
</svg>
