<?xml version="1.0" encoding="utf-8"?>
<!-- Generator: Adobe Illustrator 13.0.0, SVG Export Plug-In . SVG Version: 6.00 Build 14948)  -->
<svg version="1.2" baseProfile="tiny" id="Layer_1" xmlns="http://www.w3.org/2000/svg" xmlns:xlink="http://www.w3.org/1999/xlink"
	 x="0px" y="0px" width="45px" height="60px" viewBox="0 0 45 60" xml:space="preserve">
<path fill="#FFC107" stroke="#000000" stroke-width="2" d="M44,32.533C44,38.867,38.867,44,32.533,44H12.467
	C6.134,44,1,38.867,1,32.533V12.467C1,6.134,6.134,1,12.467,1h20.066C38.867,1,44,6.134,44,12.467V32.533z"/>
<path fill="#FFC107" stroke="#000000" stroke-width="2" d="M32.533,44L22.5,58.72L12.467,44H32.533z"/>
<path d="M21.824,15.425c-0.006,1.131-1.042,2.349-2.384,2.349v19.179c0,2.73-3.713,2.73-3.718,0V17.773
	c-1.303,0-2.44-1.008-2.438-2.509V4.697c-0.002-0.917,1.325-0.953,1.334,0.036v7.81h1.104V4.661c0-0.842,1.278-0.897,1.281,0.036
	v7.845h1.138V4.679c0.008-0.889,1.25-0.924,1.245,0.036v7.828h1.139V4.679c-0.004-0.88,1.293-0.915,1.299,0.036L21.824,15.425
	L21.824,15.425z"/>
<path d="M31.716,7.152v29.8c0.005,2.662-3.714,2.622-3.718,0V25.121h-1.976V7.152C26.021,2.968,31.721,2.968,31.716,7.152
	L31.716,7.152z"/>
</svg>
