<?xml version="1.0" encoding="utf-8"?>
<!-- Generator: Adobe Illustrator 13.0.0, SVG Export Plug-In . SVG Version: 6.00 Build 14948)  -->
<svg version="1.2" baseProfile="tiny" id="Layer_1" xmlns="http://www.w3.org/2000/svg" xmlns:xlink="http://www.w3.org/1999/xlink"
	 x="0px" y="0px" width="45px" height="60px" viewBox="0 0 45 60" xml:space="preserve">
<path fill="#FFC107" stroke="#000000" stroke-width="2" d="M44,32.533C44,38.867,38.867,44,32.533,44H12.467
	C6.134,44,1,38.867,1,32.533V12.467C1,6.134,6.134,1,12.467,1h20.066C38.867,1,44,6.134,44,12.467V32.533z"/>
<path fill="#FFC107" stroke="#000000" stroke-width="2" d="M32.533,44L22.5,58.72L12.467,44H32.533z"/>
<g>
	<g>
		<path d="M38.152,35.305H6.848c-2.396,0-4.348-1.951-4.348-4.349V20.522c0-2.397,1.951-4.348,4.348-4.348h31.305
			c2.396,0,4.348,1.951,4.348,4.348v10.434C42.5,33.354,40.548,35.305,38.152,35.305z M6.848,17.913
			c-1.438,0-2.608,1.17-2.608,2.609v10.434c0,1.438,1.17,2.609,2.608,2.609h31.305c1.438,0,2.608-1.171,2.608-2.609V20.522
			c0-1.438-1.171-2.609-2.608-2.609H6.848z"/>
	</g>
	<g>
		<path d="M22.5,12.696c-2.397,0-4.348-1.951-4.348-4.348C18.152,5.952,20.103,4,22.5,4c2.396,0,4.348,1.952,4.348,4.348
			C26.848,10.745,24.896,12.696,22.5,12.696z M22.5,5.739c-1.438,0-2.609,1.17-2.609,2.608c0,1.438,1.17,2.609,2.609,2.609
			c1.438,0,2.608-1.17,2.608-2.609C25.108,6.91,23.938,5.739,22.5,5.739z"/>
	</g>
	<g>
		<path d="M10.326,17.913c-0.223,0-0.445-0.085-0.616-0.254c-0.338-0.339-0.338-0.89,0-1.229l8.696-8.695
			c0.339-0.339,0.891-0.339,1.229,0c0.339,0.339,0.339,0.89,0,1.229l-8.695,8.695C10.771,17.828,10.548,17.913,10.326,17.913z"/>
	</g>
	<g>
		<path d="M34.674,17.913c-0.223,0-0.444-0.085-0.616-0.254l-8.695-8.695c-0.339-0.339-0.339-0.891,0-1.229
			c0.34-0.339,0.891-0.339,1.229,0l8.695,8.695c0.34,0.339,0.34,0.891,0,1.229C35.119,17.828,34.896,17.913,34.674,17.913z"/>
	</g>
	<g>
		<path d="M6.848,30.087c-0.48,0-0.87-0.39-0.87-0.87v-6.957c0-0.48,0.39-0.87,0.87-0.87c0.48,0,0.87,0.39,0.87,0.87v6.957
			C7.717,29.697,7.328,30.087,6.848,30.087z"/>
	</g>
	<g>
		<path d="M10.326,30.087c-0.48,0-0.87-0.39-0.87-0.87v-6.957c0-0.48,0.39-0.87,0.87-0.87s0.87,0.39,0.87,0.87v6.957
			C11.196,29.697,10.806,30.087,10.326,30.087z"/>
	</g>
	<g>
		<path d="M10.326,26.609H6.848c-0.48,0-0.87-0.39-0.87-0.87s0.39-0.87,0.87-0.87h3.479c0.48,0,0.87,0.39,0.87,0.87
			S10.806,26.609,10.326,26.609z"/>
	</g>
	<g>
		<path d="M15.543,30.087c-1.438,0-2.609-1.17-2.609-2.609V24c0-1.438,1.17-2.609,2.609-2.609c1.438,0,2.609,1.17,2.609,2.609v3.478
			C18.152,28.917,16.981,30.087,15.543,30.087z M15.543,23.13c-0.48,0-0.87,0.39-0.87,0.87v3.478c0,0.48,0.39,0.87,0.87,0.87
			s0.87-0.389,0.87-0.87V24C16.413,23.52,16.023,23.13,15.543,23.13z"/>
	</g>
	<g>
		<path d="M25.108,23.13h-5.217c-0.48,0-0.869-0.39-0.869-0.87s0.389-0.87,0.869-0.87h5.217c0.48,0,0.87,0.39,0.87,0.87
			S25.589,23.13,25.108,23.13z"/>
	</g>
	<g>
		<path d="M22.5,30.087c-0.48,0-0.87-0.39-0.87-0.87v-6.957c0-0.48,0.39-0.87,0.87-0.87s0.869,0.39,0.869,0.87v6.957
			C23.369,29.697,22.98,30.087,22.5,30.087z"/>
	</g>
	<g>
		<path d="M31.195,30.087h-3.478c-0.48,0-0.87-0.39-0.87-0.87v-6.957c0-0.48,0.39-0.87,0.87-0.87h3.478c0.48,0,0.87,0.39,0.87,0.87
			s-0.39,0.87-0.87,0.87h-2.608v5.217h2.608c0.48,0,0.87,0.39,0.87,0.87S31.676,30.087,31.195,30.087z"/>
	</g>
	<g>
		<path d="M29.456,26.609h-1.738c-0.48,0-0.87-0.39-0.87-0.87s0.39-0.87,0.87-0.87h1.738c0.48,0,0.87,0.39,0.87,0.87
			S29.937,26.609,29.456,26.609z"/>
	</g>
	<g>
		<path d="M38.152,30.087h-3.479c-0.48,0-0.869-0.39-0.869-0.87v-6.957c0-0.48,0.389-0.87,0.869-0.87s0.87,0.39,0.87,0.87v6.087
			h2.608c0.479,0,0.869,0.39,0.869,0.87S38.632,30.087,38.152,30.087z"/>
	</g>
</g>
</svg>
