<?xml version="1.0" encoding="utf-8"?>
<svg style="enable-background:new 25 -24.2 149.2 149.2;" x="0px" y="0px" viewBox="61.61 -10.9 76.55 121.56" xmlns="http://www.w3.org/2000/svg">
  <defs/>
  <g>
    <path d="M95.8,18.1c7.4,0,13.5-6.1,13.5-13.5S103.2-8.9,95.8-8.9s-13.5,6-13.5,13.5S88.3,18.1,95.8,18.1z"/>
    <path d="M135.3,105.9l-10.2-10.2V59.2c0.6-0.3,1.1-0.8,1.4-1.3l1-1.6c1.1-1.8,0.5-4.1-1.2-5.2l-1.1-0.7V16.7c2-0.8,3.4-2.6,3.4-4.9   V8.9c0-2.9-2.4-5.2-5.2-5.2c-2.9,0-5.2,2.4-5.2,5.2v2.9c0,2.2,1.4,4.1,3.4,4.9V48l-8.8-5.6c-0.9-0.6-1.9-2-2.2-3l-3.7-15   c-0.1-0.4-0.3-0.7-0.5-1.1c-0.6-1.2-1.9-2.1-3.3-2.1H88.4l-15.3-29C72.4-9.1,71-10,69.4-10c-0.6,0-1.3,0.1-1.8,0.4l-2.8,1.4   c-1,0.5-1.7,1.3-2,2.4c-0.3,1-0.2,2.1,0.3,3.1l17.7,33.6v30.2c0,0.1-0.1,0.2-0.1,0.2L68.5,99.4c-0.5,1.6-0.4,3.3,0.4,4.7   c0.8,1.4,2.1,2.5,3.7,2.9l0.8,0.2c0.5,0.1,1.1,0.2,1.6,0.2c2.8,0,5.3-1.8,6.2-4.5l11.6-36.2h1l2.1,10.5c0.3,1.7,0.6,4.5,0.7,6.2   l0.5,21.4c0.1,2.3,1.8,4,4.1,4c0.2,0,0.4,0,0.6,0l4-0.6c2.4-0.3,4.2-2.6,4.1-5l-1.1-21.5c-0.1-1.8-0.4-4.7-0.6-6.5l-1.5-24.6   l14.7,8.5v36.5l-10.2,10.2c-0.7,0.7-0.7,1.9,0,2.6c0.4,0.4,0.8,0.5,1.3,0.5s1-0.2,1.3-0.5l7.5-7.5v7.3c0,1,0.8,1.9,1.9,1.9   c1,0,1.9-0.8,1.9-1.9V101l7.5,7.5c0.4,0.4,0.8,0.5,1.3,0.5c0.5,0,1-0.2,1.3-0.5C136.1,107.8,136.1,106.6,135.3,105.9z"/>
  </g>
</svg>