<?xml version="1.0" encoding="utf-8"?>
<svg x="0px" y="0px" viewBox="0 0 48 60" xmlns="http://www.w3.org/2000/svg">
  <defs/>
  <g>
    <path d="M36.8,5.4c0-2.1-1.7-3.9-3.9-3.9c-2.1,0-3.9,1.7-3.9,3.9v6.3h7.8V5.4z" style="fill: rgb(0, 0, 0);"/>
    <path d="M35.7,22.7l-1.8-2.5h-2.1l-1.5,2.4c-0.3,0.5-0.8,0.9-1.2,1.3v17.4c0,2.1,1.7,3.9,3.9,3.9   c2.1,0,3.9-1.7,3.9-3.9V23.8C36.4,23.5,36,23.1,35.7,22.7z" style="fill: rgb(0, 0, 0);"/>
    <path d="M36.9,14.5h-8.2l-3.2,5c-0.4,0.7-0.2,1.5,0.4,2c0.2,0.2,0.5,0.2,0.8,0.2c0.5,0,0.9-0.2,1.2-0.7l2.4-3.7h5.1   l2.6,3.8c0.4,0.6,1.3,0.8,2,0.4c0.6-0.4,0.8-1.3,0.4-2L36.9,14.5z" style="fill: rgb(0, 0, 0);"/>
    <path d="M18.9,5.4c0-2.1-1.7-3.9-3.9-3.9c-2.1,0-3.9,1.7-3.9,3.9v6.3h7.8V5.4z" style="fill: rgb(0, 0, 0);"/>
    <path d="M17.8,22.7L16,20.2h-2.1l-1.5,2.4c-0.3,0.5-0.8,0.9-1.2,1.3v17.4c0,2.1,1.7,3.9,3.9,3.9   c2.1,0,3.9-1.7,3.9-3.9V23.8C18.5,23.5,18.1,23.1,17.8,22.7z" style="fill: rgb(0, 0, 0);"/>
    <path d="M19,14.5h-8.2l-3.2,5c-0.4,0.7-0.2,1.5,0.4,2c0.2,0.2,0.5,0.2,0.8,0.2c0.5,0,0.9-0.2,1.2-0.7l2.4-3.7h5.1   l2.6,3.8c0.4,0.6,1.3,0.8,2,0.4c0.6-0.4,0.8-1.3,0.4-2L19,14.5z" style="fill: rgb(0, 0, 0);"/>
    <path d="M2.2,7.8c-0.8,0-1.4,0.6-1.4,1.4v35.8c0,0.8,0.6,1.4,1.4,1.4s1.4-0.6,1.4-1.4V9.2C3.6,8.5,3,7.8,2.2,7.8z" style="fill: rgb(0, 0, 0);"/>
    <path d="M45.8,7.8c-0.8,0-1.4,0.6-1.4,1.4v35.8c0,0.8,0.6,1.4,1.4,1.4s1.4-0.6,1.4-1.4V9.2   C47.2,8.5,46.6,7.8,45.8,7.8z" style="fill: rgb(0, 0, 0);"/>
  </g>
</svg>